<svg xmlns="http://www.w3.org/2000/svg" viewBox="0 0 1158.69 258.26"><defs><style>.cls-1{fill:#cd1417;}.cls-2{fill:#cad85a;}</style></defs><g id="Ebene_2" data-name="Ebene 2"><g id="Ebene_2-2" data-name="Ebene 2"><g id="Gruppe_5" data-name="Gruppe 5"><g id="Gruppe_4" data-name="Gruppe 4"><g id="Gruppe_2" data-name="Gruppe 2"><path id="Pfad_5" data-name="Pfad 5" class="cls-1" d="M417.51,107.07c0,24.83-20.51,39.39-59.08,39.39H280.9V2.86h73.44c37.74,0,56.2,15.39,56.2,37.54a33.9,33.9,0,0,1-19.28,31.18C407.46,77.33,417.51,89.63,417.51,107.07ZM321.1,32.2V59.89H349c13.53,0,20.51-4.72,20.51-14,0-9-7-13.75-20.51-13.75Zm55.38,70.36c0-9.85-7.39-14.57-21.34-14.57H321.09v29.13h34.05c14,0,21.35-4.71,21.35-14.55Z"/><path id="Pfad_6" data-name="Pfad 6" class="cls-1" d="M553.93,115.07v31.38H438.65V2.86H551.27V34.25H478.85V58.46h63.8V88.82h-63.8v26.25Z"/><path id="Pfad_7" data-name="Pfad 7" class="cls-1" d="M639.27,108.3H617.12v38.15H576.5V2.86h65.64c39.19,0,63.8,20.31,63.8,53.13a47.65,47.65,0,0,1-28.12,45.34l31,45.13H665.31Zm.43-73.44H617.12V76.92H639.7c16.82,0,25.23-7.8,25.23-20.93,0-13.33-8.42-21.13-25.25-21.13Z"/><path id="Pfad_8" data-name="Pfad 8" class="cls-1" d="M824.52,71.59h35.89v59.49a107.12,107.12,0,0,1-60.3,18.26c-45.75,0-79.19-31-79.19-74.67S754.36,0,800.92,0c26.88,0,48.62,9.23,62.77,26.26L837.84,49.65a44.78,44.78,0,0,0-34.87-16c-24.61,0-41,16.19-41,41,0,24.21,16.41,41,40.61,41a51.61,51.61,0,0,0,22-4.72Z"/><path id="Pfad_9" data-name="Pfad 9" class="cls-1" d="M1001.55,115.07v31.38H886.27V2.86H998.89V34.25H926.47V58.46h63.79V88.82H926.47v26.25Z"/><path id="Pfad_10" data-name="Pfad 10" class="cls-1" d="M1086.89,108.3h-22.15v38.15h-40.62V2.86h65.64c39.2,0,63.8,20.31,63.8,53.13a47.65,47.65,0,0,1-28.11,45.34l31,45.13h-43.48Zm.43-73.44h-22.58V76.92h22.58c16.82,0,25.23-7.8,25.23-20.93,0-13.33-8.43-21.13-25.24-21.13Z"/></g><g id="Gruppe_3" data-name="Gruppe 3"><path id="Pfad_11" data-name="Pfad 11" class="cls-1" d="M358.93,177v79.66H336.41V225.56H305.69v31.06H283.16V177h22.53v29.92h30.72V177Z"/><path id="Pfad_12" data-name="Pfad 12" class="cls-1" d="M428.23,241.15H394.56l-6.26,15.47h-23L400.45,177h22.19l35.27,79.66H434.48Zm-6.59-16.61-10.23-25.49-10.22,25.49Z"/><path id="Pfad_13" data-name="Pfad 13" class="cls-1" d="M461.91,221.12V177h22.53v43.45c0,13.63,5.69,19.11,15.13,19.11s15-5.46,15-19.11V177h22.19v44.14c0,23.78-13.88,37.1-37.43,37.1S461.91,244.9,461.91,221.12Z"/><path id="Pfad_14" data-name="Pfad 14" class="cls-1" d="M546.45,249.45l7.39-16.61a50.34,50.34,0,0,0,26.29,7.85c9.33,0,13-2.61,13-6.48,0-12.63-45.28-3.41-45.28-33,0-14.22,11.6-25.82,35.27-25.82a59.53,59.53,0,0,1,28.9,6.94l-6.94,16.72A47.05,47.05,0,0,0,583,192.91c-9.44,0-12.85,3.18-12.85,7.17,0,12.17,45.15,3.07,45.15,32.42,0,13.88-11.6,25.72-35.27,25.72A62.68,62.68,0,0,1,546.45,249.45Z"/><path id="Pfad_15" data-name="Pfad 15" class="cls-1" d="M641.45,194.85H617V177h71.32v17.86H664v61.77H641.45Z"/><path id="Pfad_16" data-name="Pfad 16" class="cls-1" d="M760.69,239.22v17.4H696.75V177h62.46v17.41H719.05V207.8h35.38v16.87H719.05v14.56Z"/><path id="Pfad_17" data-name="Pfad 17" class="cls-1" d="M769,216.8c0-24.23,18.55-41.41,43.81-41.41a42.13,42.13,0,0,1,34.25,15l-14.34,13A23.57,23.57,0,0,0,814,194a22.77,22.77,0,0,0,0,45.52,23.54,23.54,0,0,0,18.77-9.33l14.34,13a42.14,42.14,0,0,1-34.25,15C787.55,258.22,769,241,769,216.8Z"/><path id="Pfad_18" data-name="Pfad 18" class="cls-1" d="M932.85,177v79.66H910.31V225.56H879.59v31.06H857.06V177h22.53v29.92h30.72V177Z"/><path id="Pfad_19" data-name="Pfad 19" class="cls-1" d="M1024.55,177v79.66H1006L970.85,214.2v42.42H948.78V177h18.55l35.15,42.44V177Z"/><path id="Pfad_20" data-name="Pfad 20" class="cls-1" d="M1040.49,177H1063v79.66h-22.53Z"/><path id="Pfad_21" data-name="Pfad 21" class="cls-1" d="M1109.78,227.72l-8.43,9v19.91h-22.3V177h22.3v33.11L1132.19,177H1157l-32.54,35.27,34.24,44.38h-26.16Z"/></g></g></g><polygon class="cls-2" points="160 17.13 160 106.89 162.2 107.91 182.71 117.48 182.71 42.94 203.35 42.94 203.35 216.36 182.71 216.36 182.71 140.26 162.2 130.69 137.78 119.3 113.13 107.81 89.47 118.83 65.04 130.22 44.39 139.86 44.39 216.36 23.74 216.36 23.74 42.94 44.39 42.94 44.39 117.07 65.04 107.44 67.1 106.48 67.1 17.13 0 17.13 0 241.13 67.1 241.13 67.1 216.36 67.1 163.71 67.1 152.25 73.53 149.26 89.69 141.72 114.13 130.33 138.55 141.72 154.72 149.26 160 151.73 160 163.71 160 216.36 160 241.13 227.1 241.13 227.1 17.13 160 17.13"/></g></g></svg>