<svg xmlns="http://www.w3.org/2000/svg" viewBox="0 0 165.95 165.95"><defs><style>.cls-1{fill:#ffea0a;}</style></defs><g id="Ebene_2" data-name="Ebene 2"><g id="Ebene_2-2" data-name="Ebene 2"><path class="cls-1" d="M73.45,42.57a1.55,1.55,0,0,0,1.09-.46,1.55,1.55,0,0,0,0-2.2,1.6,1.6,0,0,0-2.2,0,1.57,1.57,0,0,0,0,2.2A1.59,1.59,0,0,0,73.45,42.57Z"/><path class="cls-1" d="M78.21,42.52H88a1.56,1.56,0,0,0,0-3.11H78.21a1.56,1.56,0,1,0,0,3.11Z"/><path class="cls-1" d="M82.77,120.37A4.66,4.66,0,1,0,87.43,125,4.65,4.65,0,0,0,82.77,120.37Z"/><path class="cls-1" d="M83,0a83,83,0,1,0,83,83A83,83,0,0,0,83,0Zm27.25,122.35a10.4,10.4,0,0,1-10.39,10.37l-33.7,0a10.47,10.47,0,0,1-10.47-10.37V43.57A10.57,10.57,0,0,1,66.25,33.19H99.88a10.38,10.38,0,0,1,10.4,10.37Z"/><rect class="cls-1" x="61.11" y="47.97" width="44.34" height="69.23"/></g></g></svg>