<svg xmlns="http://www.w3.org/2000/svg" viewBox="0 0 165.95 165.95"><defs><style>.cls-1{fill:#c7d437;}</style></defs><g id="Ebene_2" data-name="Ebene 2"><g id="Ebene_2-2" data-name="Ebene 2"><path class="cls-1" d="M83,71.74a8,8,0,0,0-6.65,3.7q-2.69,3.68-2.69,9.7a15.71,15.71,0,0,0,1.93,8.13c1.26,2.18,2.94,3.27,5,3.27,3.06,0,5.68-1.5,7.88-4.45a16.86,16.86,0,0,0,3.33-10.2,10.14,10.14,0,0,0-2.68-7.38A8.34,8.34,0,0,0,83,71.74Z"/><path class="cls-1" d="M83,0a83,83,0,1,0,83,83A83,83,0,0,0,83,0Zm39.31,99.39q-8,9.54-18.92,9.53c-5,0-8.72-1.9-11.27-5.74q-5.09,6-12.23,6c-5.33,0-9.89-2.24-13.68-6.76S60.5,92,60.5,84.65c0-7.51,2.12-13.67,6.41-18.43A20,20,0,0,1,82.3,59.05,16.19,16.19,0,0,1,92.74,63l.8-2.91H106l-3.62,29.61a52.57,52.57,0,0,0-.33,5.28c0,1.85.86,2.76,2.57,2.76,3.17,0,6.23-2,9.17-6s4.42-9,4.42-15a28.23,28.23,0,0,0-9.64-21.9q-9.63-8.7-23.63-8.7a34.53,34.53,0,0,0-25.6,10.59Q48.91,67.25,48.9,83.07a36.77,36.77,0,0,0,9.73,25.39q9.75,10.83,27.51,10.82a57.6,57.6,0,0,0,22.85-5,5.81,5.81,0,1,1,4.56,10.68,68.91,68.91,0,0,1-27.39,5.75q-23.16,0-36.83-14.08A46.6,46.6,0,0,1,35.68,83Q35.68,62.64,50,49T84.76,35.26q19.38,0,32.45,12T130.27,76.4Q130.27,89.86,122.29,99.39Z"/></g></g></svg>