<svg xmlns="http://www.w3.org/2000/svg" viewBox="0 0 396.7 691.88"><defs><style>.cls-1{fill:#010101;}</style></defs><g id="Ebene_2" data-name="Ebene 2"><g id="Ebene_2-2" data-name="Ebene 2"><path class="cls-1" d="M32.4.64c.67.72.48,2.33,1,3.83,1.36,3.88,1.18,6.27,5.78,9.09,3.7,2.27,5.93,8.8,8.31,14.49,1.33,3.2,5.51,12.06,7.67,16.87,9.92,22.19,32.33,49.74,47.45,67.63,23.2,27.43,48.13,48.42,79.24,63.53,5.2,2.53,8.66,4.09,11.35,5.5s2.73,2.17,3.26,1.67c1.59-1.48,2-7.48.55-9.56-.79-1.16-1.6-.62-4.13-1.4-24.52-7.5-35.65-30.88-41-55.94-1-4.7-1.56-26.79-.62-31.54,4.42-22.5,11.66-44.91,32.42-55.1,29.35-14.4,49.75,9.72,60,35.36a120.06,120.06,0,0,1,3.44,12.07c1.45,6.28,1.79,14.55,1.89,21.39s.25,15.22-1.07,21.44c-2.45,11.52-5.83,22.06-11.77,31.34C229,162.46,220.93,168.85,208.7,173c-1,.35-1.12,2.79-.87,4.2.08.42-.21,3.11.18,3.62,1.21-.73,9.71-6.62,11.1-7.56,14-9.51,47.67-32.79,56.48-39.19,29-21.06,45.57-32,63.59-57.08,1-1.35.23-1.22,1.55-2.79a37.45,37.45,0,0,1-1.84-3.53c-4.23-8.2-4.05-22.33-4.3-30.2-.16-4.91-2.26-16.06.89-18.2,2.17-1.48,3.85,4.37,5.82,7.15s4.79,7.4,11.46,7.7c3.25.15,14.67.25,18.19-.1,5.8-.58,21.51-3.05,24.49.95,6.14,8.24-11.85,16.12-18.4,21.41-5,4-18.81,12.21-26.76,15.36-3.62,1.44-2.4-.63-5.25,4.38-18.11,31.86-71,64-100.57,84.23-13.29,9.09-25.16,16.14-34.38,24.29-5,4.39-1.79-.06-3.65,2.69-4.5,6.66-2.21,8.84-3.21,19.58-.65,6.92.24,15.31.7,29.66.57,17.89,1.94,48.36,3,68.88,1,19.41,1.24,45.91.25,61.66-1.19,19-1.06,21.59-7.32,35.81-.66,1.51-1.18,1.1-1.8,2.74.84,1.07,2.69,4.65,3.42,5.85,22.86,37.82,43.62,82.26,52.36,124.48,3.31,16,3,21.1,3.81,33.21s-.6,19.85-.81,29.4c-.08,3.35-2,5.78-.85,6.06,13.1,3.22,34.24-2.94,48-5,1-.15,1.09,1.23,1.36,3.25a17.47,17.47,0,0,0,4.67,9.12c3.22,3.34-1.67,6-5.06,7-1.63.46-4,1-1.2,1.87,10.21,3-27.19,2.89-62.83,1.86-8.06-.24-14.73-2-14.26-.23s16,3.74,23.5,5.7c18.09,4.72,29.31,7,10.25,4.16-3.37-.5-28.66-4.47-37.82-5.7s-39.64-6.31-45.82-7.39c-21.62-3.82-44-10.43-60.35-10.36-4.35,0,6.59,2,8.79,2.67a125.59,125.59,0,0,0,18,3.71,312.86,312.86,0,0,1,42.44,7.55c3.92,1,19.46,3.55,21.25,3.87C214,631,261,636.12,261.68,640.86c.27,2-4.37,1.34-11.66,1.47-12.07.2-32.25-.54-49.44-1.62-4.27-.26-21.49-1.82-29.71-2s-21.69,1.21-31.05-.08c-57.1-7.83-73.92-9.66-69.32-6.59.9.6,9.38,6.75,15.37,8.49,14.73,4.25,57.41,10.39,68.39,11,13.06.72,9.62.48,14.07,4.1,1.57,1.28-.94.78.38,1.16a13.34,13.34,0,0,0,2.48.3,4.3,4.3,0,0,1,2.4.83c.86.88,0,1.38-.56,2.16s-1.13,1.36-.85,2.34a4.7,4.7,0,0,1-.54,3,18.87,18.87,0,0,1-.94,2c-3.54,1.18-9.36,2.49-12.68,3.56-11.54,3.73-34.82-3.92-44.64-4.82-6-.55-10.92-1.41-11-.57s4.94.61,11.34,1.74c17.42,3.06,1.9.14-12.65-1C70,664,93.17,673.31,86.66,682c-4.07,5.46-15.9-5.57-21.22-.06-2.61,2.69,6.47,12-.33,9.49S33,688.84,24.89,683.36c-1-.66-.33-.93.6-3.13s4.91-8.9,8.5-10.7,6.24-8.68,8.65-9.58c8.47-3.12,6.67-1.88,17.6,1.57,14.34,4.51,41.75,25,19.16,5.37-11.07-9.59,4.36-1.39-7.83-6.08-4.11-1.58-13.08-4.51-17.42-5.55A93,93,0,0,0,40.47,653c-2.56-.15-6.83-.07-6.48-.8,1-2.2,3.14-2.38,7.58-3,6.11-.92,10.61-1.63,20.09-3.22s5.28-1.13-4.09-4.4c-24.39-8.51-48.74-11-3.2-22.5,13.38-3.38,63.5,10.72,78.52,12.77,3.58.49,8.17,1.14,4.34-.51-9.5-4.09-36.71-8.88-47.38-10.63-5.48-.9-6.33-.84-7.73-1.85s-.06-.57-1.78-1-10.57-2.83-11.27-3c-3.83-.95-46.19-10.84-36-14.78,4.51-1.74,12.24-.41,17.95-.54,1.35,0,6.19.39,8,.36-.34-.54-1.51-1.79-1.86-2.23-.77-1-2-2.42-1.85-3.42.5-2.9,3.35-4.14,5.67-5.15,3-1.31,5.76-2.32,7.77-5.09s9.82,1.57,13.62,2.64c1.86.52,12.35,4,15.39,3.73,4.15-.31,5.81,2.94,9.39-.13,11.1-9.53,12.49-27.22,16-45.13,3.48-17.7,10.12-48.13,18.17-68,9.74-24,22.27-45.71,39.19-65.13,1.13-1.31,3.1-3.61,4.36-4.89-.38-1.58-.42-.47-.84-1.94-5-17.35-3.13-23.8-3.79-46.64-.35-12.34,1.87-58.42,2.86-71.22,2.59-33.38,4.8-60,9.63-86.69,2.32-12.84,3.8-3.18-.4-11.83-2-4.05-8.1-3.86-14.26-7.3-15.84-8.84-26.72-14-43.24-27.6C104.73,129.06,76.3,92,55.38,58.2,51.52,52,49.63,49.86,45.16,46.42,35,38.58,21.24,32.09,11.24,27.46,6,25.06.78,24.13.07,20.53c-.83-4.23,5.59-3.64,9.46-4.4,6.34-1.26,16.59-4.26,18.81-11.68.86-2.87,1.16-3.34,2.52-4.1C31.86-.21,31.72-.08,32.4.64ZM192,33.16c-7.11,2-14.07,6.8-19.62,14.41-3.92,5.38-9.08,14.89-11.23,22.57a103.25,103.25,0,0,0,1.26,60.71,78,78,0,0,0,5,11c14.88,26.43,40.54,35.94,61,9.06,5.9-7.73,8.5-15.26,11.23-24.84,2.48-8.69,3.12-17.81,2.95-27.6-.32-17.69-5.1-37.31-16-51-7.55-9.53-13.5-13.2-24.48-15.24C198.21,31.47,197,31.73,192,33.16Zm1,257.59c-1.48,18.26-2.6,48.61-2.67,65-.09,20.21,0,24.58,1.85,41.22.16,1.44.3.79.44,2.3.42-1.67.51-1.14,1-2.83,5.7-19.9,4.77-38.81,4.33-61.34-.11-5.51-.89-26.83-1.25-35.33s-1-20.37-1.62-28c-.29-3.45-.19-1.58-.42-4.23-.18,2.65-.2,2.72-.42,5.56C193.77,279.29,193.67,282.82,193,290.75ZM185,416.32c-17.29,20.26-30.53,43.15-40.27,69.71-6.41,17.49-12.28,43.91-15.55,61.41-3.17,17-5,32.13-13.93,44.2-2.43,3.26-1.67,1.47-3,3.81s-2.74,2.54-4.68,4.4c-.9.85-3.15,2.58-4.13,3.63,6.84.57,16.65,2,23.61,2.68C162,609.36,203.39,615,235.75,618c13.47,1.24,13.62,1.26,18.45,1.32,6.75.09-.61-.76-.6-1.8,0-1.57-6.56-3.13-5.88-7.79a81.44,81.44,0,0,0,1.64-8.06c1.28-11.15,2.64-15.28,1.94-29.38-1.44-29.33-8.46-56.19-20.85-86.42-7.95-19.4-22.68-50.23-34.84-68.87-2.52-3.84-1.7-5.22-5-5S188.07,412.69,185,416.32Zm7.62,202.46c3,2.08,2.54,3-1.76,3-5.22,0,15.25,1.93,19.1,2.49,4.53.66,12.25.76-3.29-2.92C194.62,618.5,190.29,617.18,192.6,618.78Z"/><path class="cls-1" d="M177.82,120.36c.23.26.14,3.37.36,5.42.49,4.78,1.58,10.73,5.87,14.51,6.23,5.5,13.47,8.53,21.8,5.35,7.36-2.81,10.48-10.63,12.13-17.73.46-2,.65-4.58,1-5.74.46-1.49.35-1.55,1.61-1.26s1.35,1.12,1.12,3.42c-.83,8-4.1,19.52-12.36,23.23-14.43,6.49-26.91-.84-33.31-14-1.51-3.1-1.58-10-.54-12.51C176.11,119.52,177,119.4,177.82,120.36Z"/><path class="cls-1" d="M219.89,83.92a6.08,6.08,0,0,1-.69,2.27,4.83,4.83,0,0,1-2.7,2,2.37,2.37,0,0,1-2-.21A2.61,2.61,0,0,1,213,86.62a5.51,5.51,0,0,1-.62-4.13c.65-2,1.51-3.58,3.81-3.77,1.78-.15,2.85,1.2,3.58,2.81A5.29,5.29,0,0,1,219.89,83.92Z"/><path class="cls-1" d="M183.73,83a5.43,5.43,0,0,1-.25,2.11,4.35,4.35,0,0,1-2.06,2.18,2.16,2.16,0,0,1-1.77.12,2.39,2.39,0,0,1-1.54-1,4.85,4.85,0,0,1-1.18-3.53c.26-1.82.76-3.38,2.75-3.9,1.55-.41,2.7.61,3.59,1.91A4.85,4.85,0,0,1,183.73,83Z"/></g></g></svg>