<svg xmlns="http://www.w3.org/2000/svg" viewBox="0 0 165.95 165.95"><defs><style>.cls-1{fill:#cb1517;}</style></defs><g id="Ebene_2" data-name="Ebene 2"><g id="Ebene_2-2" data-name="Ebene 2"><path class="cls-1" d="M83,0a83,83,0,1,0,83,83A83,83,0,0,0,83,0Zm47.26,110-8.88,18.84a3.25,3.25,0,0,1-3.26,1.81c-9.39-1-32.44-5.07-55.09-27.73S36.27,57.23,35.28,47.85a3.27,3.27,0,0,1,1.81-3.27l18.84-8.87a3.29,3.29,0,0,1,4.26,1.2L71.93,55.13a3.28,3.28,0,0,1-.47,4.07l-7.37,7.37a3.28,3.28,0,0,0-.94,2.74c.47,3.65,2.52,12.76,11.63,21.86S93,102.34,96.64,102.8a3.27,3.27,0,0,0,2.74-.94l7.37-7.37a3.3,3.3,0,0,1,4.07-.46L129,105.76A3.3,3.3,0,0,1,130.24,110ZM79.69,55A3.29,3.29,0,0,1,83,51.72,31.3,31.3,0,0,1,114.24,83a3.29,3.29,0,1,1-6.58,0A24.71,24.71,0,0,0,83,58.3,3.29,3.29,0,0,1,79.69,55Zm50,30.29A3.29,3.29,0,0,1,124.11,83,41.18,41.18,0,0,0,83,41.85a3.3,3.3,0,0,1,0-6.59A47.77,47.77,0,0,1,130.69,83,3.29,3.29,0,0,1,129.73,85.3Z"/></g></g></svg>